<svg width="1884" height="848" xmlns="http://www.w3.org/2000/svg" xmlns:xlink="http://www.w3.org/1999/xlink" overflow="hidden"><defs><clipPath id="clip0"><rect x="1155" y="886" width="1884" height="848"/></clipPath></defs><g clip-path="url(#clip0)" transform="translate(-1155 -886)"><path d="M1337.53 976 1345.4 986.56C1311.26 1012.09 1291.16 1052.28 1291.16 1095 1291.16 1137.72 1311.26 1177.91 1345.4 1203.44L1337.53 1214C1300.07 1185.99 1278 1141.88 1278 1095 1278 1048.12 1300.07 1004.01 1337.53 976.001ZM1514.48 976 1506.62 986.56C1540.74 1012.09 1560.84 1052.28 1560.84 1095 1560.84 1137.72 1540.74 1177.91 1506.62 1203.44L1514.48 1214C1551.93 1185.99 1574 1141.87 1574 1095 1574 1048.13 1551.93 1004.01 1514.48 976.001ZM1485.05 1174.39 1492.91 1184.95 1492.9 1184.95C1521.21 1163.78 1537.89 1130.43 1537.89 1095 1537.89 1059.57 1521.21 1026.22 1492.9 1005.05L1485.03 1015.61C1510.02 1034.3 1524.73 1063.73 1524.73 1095 1524.73 1126.27 1510.02 1155.71 1485.03 1174.39ZM1314.11 1095C1314.11 1130.43 1330.79 1163.78 1359.11 1184.95L1366.97 1174.39C1341.99 1155.7 1327.27 1126.27 1327.27 1095 1327.27 1063.73 1341.99 1034.29 1366.97 1015.61L1359.11 1005.05C1330.79 1026.22 1314.11 1059.57 1314.11 1095ZM1471.29 1034.06 1463.42 1044.66C1479.28 1056.5 1488.62 1075.17 1488.62 1095 1488.62 1114.83 1479.28 1133.5 1463.42 1145.34L1471.29 1155.94C1490.47 1141.6 1501.77 1119.01 1501.77 1095 1501.77 1070.99 1490.47 1048.4 1471.29 1034.06ZM1350.23 1095C1350.24 1119 1361.54 1141.58 1380.71 1155.94L1388.57 1145.34C1372.72 1133.5 1363.38 1114.83 1363.38 1095 1363.38 1075.17 1372.72 1056.5 1388.57 1044.66L1380.71 1034.06C1361.54 1048.41 1350.24 1071 1350.23 1095ZM1426 1055.42C1410.04 1055.42 1395.67 1065.06 1389.56 1079.85 1383.45 1094.64 1386.83 1111.67 1398.11 1122.99 1409.39 1134.31 1426.36 1137.7 1441.09 1131.57 1455.83 1125.44 1465.44 1111.01 1465.44 1095 1465.44 1084.5 1461.29 1074.43 1453.89 1067.01 1446.49 1059.58 1436.45 1055.41 1426 1055.41Z" fill="#ED7D31" fill-rule="evenodd"/><text fill="#ED7D31" font-family="Bahnschrift,Bahnschrift_MSFontService,sans-serif" font-weight="700" font-size="403" transform="matrix(1 0 0 1 1470.67 1409)">o<tspan fill="#767171" font-size="403" x="336.116" y="0">4</tspan><tspan fill="#767171" font-size="403" x="554.802" y="0">H</tspan><tspan font-size="367" x="-95.3352" y="7">I</tspan></text><path d="M1767.71 1412.87 1729.09 1412.18C1716.91 1411.94 1707.54 1399.5 1708.37 1384.87L1721.57 1161.08 1781.26 1162.14C1783.46 1224.58 1787.19 1333.42 1789.05 1386.37 1789.6 1400.96 1779.77 1413.11 1767.71 1412.87Z" fill="#ED7D31" fill-rule="evenodd"/><path d="M1666.58 1130.5C1666.46 1139.74 1658.84 1147.14 1649.61 1146.99L1631.43 1146.66C1622.25 1146.45 1614.93 1138.91 1615 1129.74L1615.65 1077.54C1615.8 1068.3 1623.41 1060.92 1632.63 1061.05L1650.75 1061.32C1659.93 1061.53 1667.31 1069.13 1667.18 1078.24L1667.11 1082.69 1681.68 1082.96 1681.21 1126.57 1666.65 1126.3Z" fill="#767171" fill-rule="evenodd"/><path d="M1894.11 1141.73C1890.24 1095.71 1852.41 1060.41 1806.16 1059.66 1804.01 1059.63 1711.63 1058.26 1711.63 1058.26 1699.63 1058.09 1690.43 1067.73 1690.26 1079.01L1689.67 1131.15C1689.5 1142.44 1698.36 1152.05 1710.36 1152.34L1788.23 1153.73C1799.87 1153.9 1809.43 1144.62 1809.6 1132.98L1809.75 1126.69C1836.17 1109.07 1873.99 1120.13 1886.06 1144.01 1886.99 1145.82 1889.08 1146.76 1891 1146.19 1892.93 1145.6 1894.21 1143.77 1894.11 1141.73ZM1826.87 1088.77C1820.18 1086.28 1813.05 1085.03 1805.8 1084.86 1803.24 1084.83 1801.56 1082.78 1801.61 1080.55 1801.7 1078.22 1803.6 1076.38 1805.93 1076.36 1814.14 1076.54 1822.16 1077.98 1829.74 1080.8 1831.94 1081.6 1833.12 1084.02 1832.31 1086.22 1831.48 1088.41 1829.01 1089.52 1826.87 1088.77Z" fill="#767171" fill-rule="evenodd"/><text fill="#7F7A7A" font-family="Arial,Arial_MSFontService,sans-serif" font-weight="700" font-size="147" transform="matrix(1 0 0 1 1682.1 1544)">Platform</text><path d="M3029.43 1448.79 2922.8 1409 2718.54 1484.82C2707.28 1488.58 2694.51 1491.58 2682.5 1491.58 2669.73 1491.58 2657.72 1489.33 2646.46 1484.82L2442.21 1409 2335.57 1448.79C2322.81 1453.29 2322.81 1471.31 2335.57 1476.57L2665.23 1598.19C2676.49 1601.94 2688.51 1601.94 2699.77 1598.19L3029.43 1476.57C3042.19 1471.31 3042.19 1453.29 3029.43 1448.79Z" fill="#7F7A7A" fill-rule="evenodd"/><path d="M3029.43 1284.62 2922.8 1245 2718.54 1319.76C2707.28 1324.24 2694.51 1326.48 2682.5 1326.48 2669.73 1326.48 2657.72 1324.24 2646.46 1319.76L2442.21 1245 2335.57 1284.62C2322.81 1289.11 2322.81 1307.05 2335.57 1312.28L2665.23 1432.64C2676.49 1437.12 2688.51 1437.12 2699.77 1432.64L3029.43 1311.53C3042.19 1307.05 3042.19 1289.11 3029.43 1284.62Z" fill="#ED7D31" fill-rule="evenodd"/><path d="M2335.57 1146.86 2665.23 1268.19C2676.49 1271.94 2688.51 1271.94 2699.77 1268.19L3029.43 1146.86C3042.19 1142.36 3042.19 1123.64 3029.43 1119.14L2699.77 997.809C2688.51 994.064 2676.49 994.064 2665.23 997.809L2335.57 1119.14C2322.81 1123.64 2322.81 1142.36 2335.57 1146.86Z" fill="#7F7A7A" fill-rule="evenodd"/></g></svg>