<svg width="1387" height="620" xmlns="http://www.w3.org/2000/svg" xmlns:xlink="http://www.w3.org/1999/xlink" overflow="hidden"><defs><clipPath id="clip0"><rect x="2095" y="602" width="1387" height="848"/></clipPath></defs><g clip-path="url(#clip0)" transform="translate(-2095 -602)"><path d="M2276.74 692 2284.62 702.56C2250.37 728.09 2230.2 768.28 2230.2 811 2230.2 853.72 2250.38 893.908 2284.62 919.44L2276.74 930C2239.15 901.994 2217 857.883 2217 811.001 2217 764.118 2239.15 720.009 2276.74 692.001ZM2454.28 692 2446.39 702.56C2480.63 728.09 2500.8 768.28 2500.8 811 2500.8 853.72 2480.62 893.908 2446.39 919.44L2454.28 930C2491.85 901.994 2514 857.869 2514 811.001 2514 764.132 2491.85 720.009 2454.28 692.001ZM2424.74 890.388 2432.63 900.949 2432.62 900.949C2461.03 879.776 2477.76 846.431 2477.76 811 2477.76 775.568 2461.03 742.223 2432.62 721.052L2424.73 731.612C2449.8 750.295 2464.56 779.732 2464.56 811.001 2464.56 842.27 2449.8 871.707 2424.73 890.39ZM2253.24 810.999C2253.24 846.431 2269.97 879.776 2298.38 900.948L2306.27 890.388C2281.21 871.704 2266.44 842.268 2266.44 810.999 2266.44 779.73 2281.21 750.293 2306.27 731.609L2298.38 721.049C2269.97 742.222 2253.24 775.567 2253.24 810.998ZM2410.94 750.062 2403.05 760.661C2418.96 772.497 2428.33 791.168 2428.33 810.999 2428.33 830.83 2418.96 849.5 2403.05 861.337L2410.94 871.936C2430.18 857.598 2441.53 835.006 2441.53 810.999 2441.53 786.991 2430.18 764.4 2410.94 750.062ZM2289.47 810.999C2289.48 834.995 2300.83 857.585 2320.06 871.936L2327.95 861.338C2312.04 849.501 2302.67 830.831 2302.67 811 2302.67 791.169 2312.04 772.498 2327.95 760.661L2320.06 750.063C2300.83 764.414 2289.48 787.003 2289.47 811ZM2365.5 771.415C2349.49 771.415 2335.06 781.06 2328.94 795.849 2322.8 810.639 2326.2 827.672 2337.51 838.991 2348.83 850.312 2365.86 853.703 2380.64 847.566 2395.43 841.442 2405.07 827.013 2405.07 810.999 2405.07 800.504 2400.91 790.433 2393.48 783.006 2386.06 775.579 2375.99 771.415 2365.5 771.415Z" fill="#ED7D31" fill-rule="evenodd"/><text fill="#ED7D31" font-family="Bahnschrift,Bahnschrift_MSFontService,sans-serif" font-weight="700" font-size="403" transform="matrix(1 0 0 1 2410.61 1125)">o<tspan fill="#767171" font-size="403" x="336.116" y="0">4</tspan><tspan fill="#767171" font-size="403" x="554.802" y="0">H</tspan><tspan font-size="367" x="-95.3355" y="7">I</tspan></text><path d="M2707.65 1128.99 2669.03 1128.3C2656.85 1128.06 2647.48 1115.62 2648.31 1100.99L2661.51 877.198 2721.2 878.259C2723.4 940.701 2727.13 1049.54 2728.99 1102.48 2729.54 1117.07 2719.71 1129.23 2707.65 1128.99Z" fill="#ED7D31" fill-rule="evenodd"/><path d="M2606.52 846.621C2606.4 855.859 2598.78 863.254 2589.54 863.106L2571.37 862.777C2562.19 862.57 2554.87 855.027 2554.94 845.86L2555.59 793.656C2555.74 784.418 2563.35 777.035 2572.57 777.171L2590.69 777.439C2599.87 777.646 2607.25 785.25 2607.11 794.357L2607.05 798.802 2621.62 799.077 2621.15 842.689 2606.58 842.415Z" fill="#767171" fill-rule="evenodd"/><path d="M2834.05 857.844C2830.17 811.825 2792.35 776.531 2746.1 775.774 2743.95 775.743 2651.57 774.379 2651.57 774.379 2639.57 774.202 2630.36 783.844 2630.2 795.126L2629.61 847.271C2629.44 858.553 2638.3 868.163 2650.3 868.459L2728.17 869.847C2739.81 870.019 2749.37 860.74 2749.54 849.101L2749.69 842.803C2776.1 825.191 2813.93 836.245 2826 860.126 2826.93 861.933 2829.02 862.872 2830.94 862.302 2832.87 861.721 2834.15 859.887 2834.05 857.842ZM2766.8 804.891C2760.12 802.401 2752.99 801.148 2745.74 800.981 2743.18 800.944 2741.5 798.899 2741.55 796.664 2741.64 794.335 2743.53 792.498 2745.86 792.473 2754.07 792.654 2762.1 794.099 2769.68 796.912 2771.88 797.722 2773.05 800.141 2772.24 802.341 2771.42 804.529 2768.94 805.639 2766.8 804.891Z" fill="#767171" fill-rule="evenodd"/></g></svg>
