<?xml version="1.0"?>
<svg version="1.1" x="0px" y="0px" width="327" height="104" viewBox="0 0 327 104" xmlns="http://www.w3.org/2000/svg">
	<g fill="#FFFFFF">
		<path d="m118.38325,70.8259l3.13185,12.84516l3.12931,0l2.50903,-9.82007l2.3311,9.82007l3.06068,0l3.27421,-12.84516l-2.6336,0l-2.08196,9.62688l-2.25991,-9.62688l-3.11659,0l-2.50649,9.62688l-1.99299,-9.62688l-2.84459,0l0,0l-0.00001,0zm20.23245,-0.01525l0,7.68472c0,1.19224 0.03559,2.18365 0.6584,3.16744c1.21258,1.93706 3.55638,2.21924 4.84013,2.21924c2.59801,0 5.64088,-1.22528 5.64088,-5.04859l0,-8.02282l-2.68444,0l0,7.68472c0,1.29646 -0.14236,1.79725 -0.40927,2.18365c-0.71178,1.10835 -2.04892,1.11597 -2.48871,1.11597c-2.69207,0 -2.79883,-1.75658 -2.79883,-3.16236l0,-7.82962l-2.75817,0l0,0.00763l0.00001,0.00001zm15.1432,12.82482l2.79121,0l0,-5.00028l1.86843,0c0.67619,0 1.9752,0 2.91832,-0.60502c1.01175,-0.65585 1.63711,-1.91674 1.63711,-3.41656c0,-0.65585 -0.10677,-1.58372 -0.78297,-2.40227c-1.06768,-1.27613 -2.61327,-1.40069 -4.46645,-1.40069l-3.97074,0l0.00508,12.82482l0,0zm2.72003,-10.74794l1.38798,0c0.7855,0 2.26245,0 2.26245,1.74896c0,1.95995 -1.65235,1.95995 -2.54463,1.95995l-1.10326,0l-0.00254,-3.7089l0,0zm9.57858,10.74794l2.79121,0l0,-5.00028l1.87098,0c0.67619,0 1.9752,0 2.91323,-0.60502c1.01175,-0.65585 1.64218,-1.91674 1.64218,-3.41656c0,-0.65585 -0.10931,-1.58372 -0.7855,-2.40227c-1.07022,-1.27613 -2.61072,-1.40069 -4.46645,-1.40069l-3.96819,0l0.00254,12.82482l0,0zm2.72003,-10.74794l1.38543,0c0.7855,0 2.265,0 2.265,1.74896c0,1.95995 -1.65744,1.95995 -2.54717,1.95995l-1.10326,0l0,-3.7089l0,0zm9.37775,10.74794l8.80324,0l0,-2.13027l-6.04762,0l0,-3.47503l5.48074,0l0,-2.09468l-5.48074,0l0,-3.06322l5.85696,0l0,-2.09976l-8.61259,0l0,12.86295l0,0l0.00001,0zm12.04695,0l2.80646,0l0,-5.19348l2.42261,0c0.4652,0 1.13631,0 1.38543,0.72958c0.17795,0.49571 0.57451,3.75466 0.69399,4.4639l3.04288,0c-0.14744,-0.21354 -0.25675,-0.35335 -0.39148,-0.92278c-0.08897,-0.35843 -0.19829,-0.9787 -0.39148,-2.49125c-0.23387,-1.67269 -0.37114,-2.77596 -2.31076,-2.9539c0.62281,-0.17286 2.68698,-0.74483 2.68698,-3.1471c0,-0.83889 -0.31776,-1.77692 -1.11597,-2.47345c-1.02955,-0.88973 -2.47345,-0.88973 -3.89448,-0.87448l-4.9291,0l-0.00508,12.86295l0,0l0,0.00001zm2.72003,-10.83182l1.85318,0c0.87448,0 1.39052,0 1.81759,0.29742c0.25166,0.16269 0.67873,0.57197 0.67873,1.44391c0,0.90753 -0.51604,1.35494 -0.70924,1.49475c-0.44741,0.35843 -1.08801,0.35843 -1.41086,0.35843l-2.22432,0l-0.00508,-3.59451l0,0zm13.21884,10.83182l2.7785,0l0,-10.73014l3.82838,0l0,-2.13535l-10.43018,0l0,2.13535l3.82329,0l0,10.73014l0,0zm11.18009,-12.86295l-4.64184,12.8655l2.63106,0l0.96345,-2.77596l5.08925,0l0.92278,2.77596l2.77596,0l-4.46899,-12.8655l-3.27166,0l0,0l-0.00001,0zm-0.3381,8.00757l1.90148,-5.48074l1.78201,5.48074l-3.68348,0l0,0l-0.00001,0zm10.92842,4.85538l8.32533,0l0,-2.18365l-5.52395,0l0,-10.65896l-2.80646,0l0.00508,12.84261l0,0l-0.00001,0z"/>
		<path d="m119.39754,45.13304l0,7.68726c0,1.19478 0.03559,2.1862 0.6584,3.16998c1.21004,1.93706 3.55383,2.21924 4.84013,2.21924c2.59547,0 5.64088,-1.22528 5.64088,-5.04859l0,-8.02791l-2.68444,0l0,7.68726c0,1.29901 -0.1449,1.79979 -0.40927,2.1862c-0.71178,1.10835 -2.04892,1.11597 -2.49125,1.11597c-2.68952,0 -2.79629,-1.75658 -2.79629,-3.1649l0,-7.82962l-2.75817,0.00508l0,0l0.00001,0.00001zm14.73393,12.8299l2.59547,0l0,-10.67421l4.98249,10.67421l3.7877,0l0,-12.86295l-2.55988,0l0,10.12004l-4.82488,-10.12004l-3.9809,0l0,12.86295l0,0zm15.05423,0l2.75562,0l0,-12.89854l-2.75562,0l0,12.89854l0,0zm5.51632,-12.80957l4.73336,12.80957l3.00729,0l4.73082,-12.80957l-2.72003,0l-3.38097,10.08699l-3.36317,-10.08699l-3.00729,0l0,0l-0.00001,0zm15.37707,12.80957l8.80324,0l0,-2.13535l-6.04762,0l0,-3.46995l5.48074,0l0,-2.09722l-5.48074,0l0,-3.06322l5.85442,0l0,-2.09722l-8.61005,0l0,12.86295l0,0l0.00001,0zm12.0444,0l2.80646,0l0,-5.19348l2.42261,0c0.46266,0 1.13631,0 1.38543,0.72958c0.17795,0.49571 0.57451,3.75466 0.69399,4.4639l3.03525,0c-0.13981,-0.21354 -0.24912,-0.35843 -0.38385,-0.92278c-0.08897,-0.35843 -0.19829,-0.9787 -0.39148,-2.48871c-0.23387,-1.67269 -0.37114,-2.7785 -2.3133,-2.95644c0.62536,-0.17795 2.68952,-0.74738 2.68952,-3.14964c0,-0.83634 -0.31776,-1.77946 -1.12106,-2.47345c-1.027,-0.88973 -2.47345,-0.88973 -3.89194,-0.87194l-4.92656,0l-0.00508,12.86295l0,0l0,0.00001zm2.71749,-10.83945l1.85318,0c0.87448,0 1.39052,0 1.81759,0.30251c0.24912,0.16015 0.67619,0.56943 0.67619,1.44136c0,0.90753 -0.51604,1.35239 -0.71178,1.49475c-0.44487,0.3559 -1.08547,0.3559 -1.40831,0.3559l-2.22432,0l-0.00254,-3.59451l0,0l0,-0.00001zm10.3107,6.72636c0.01525,1.24562 0.05085,4.41306 4.97994,4.41306c3.55638,0 5.47311,-1.86589 5.47311,-4.18428c0,-2.50649 -2.18111,-3.11151 -4.40543,-3.64535c-1.85318,-0.46266 -2.79883,-0.67619 -2.79883,-1.86843c0,-1.05243 0.8338,-1.74641 2.1201,-1.74641c1.90148,0 2.04892,1.51254 2.07942,1.95995l2.65139,0c0,-0.42707 0,-1.45916 -0.72958,-2.38447c-0.95836,-1.21004 -2.54208,-1.50999 -3.87414,-1.50999c-3.57926,0 -5.08925,1.86589 -5.08925,3.98599c0,2.22432 1.67015,3.13185 4.72828,3.89956c1.64218,0.38639 2.43786,0.58214 2.43786,1.72862c0,1.08292 -0.94311,1.79725 -2.43786,1.79725c-2.36922,0 -2.33364,-1.83793 -2.33364,-2.44295l-2.80137,0l0,-0.00254zm13.7298,4.11309l2.75562,0l0,-12.89854l-2.75562,0l0,12.89854l0,0zm9.38283,0l2.77596,0l0,-10.73014l3.82329,0l0,-2.13281l-10.42255,0l0,2.13281l3.82329,0l0,10.73014l0,0zm13.62812,-13.8264l1.81759,0l0,-2.09722l-1.81759,0l0,2.09722l0,0zm-3.05813,0l1.8125,0l0,-2.09722l-1.8125,0l0,2.09722l0,0zm0.78297,0.9787l-4.64693,12.8477l2.63615,0l0.95836,-2.77596l5.08925,0l0.92278,2.77596l2.77596,0l-4.4639,-12.8477l-3.27166,0l0,0l-0.00001,0zm-0.33556,7.98977l1.90148,-5.48582l1.77692,5.48582l-3.6784,0l0,0l-0.00001,0zm12.23505,4.85793l2.7785,0l0,-10.73014l3.82838,0l0,-2.13281l-10.43018,0l0,2.13281l3.82329,0l0,10.73014l0,0z"/>
		<path d="m119.32637,32.28788l4.80454,0c0.49825,0 2.24466,0 3.23861,-0.51604c0.9965,-0.49825 1.88623,-1.50999 1.88623,-3.02508c0,-1.35239 -0.76517,-2.77596 -2.72003,-3.13185l0,-0.03559c0.74483,-0.19574 1.37018,-0.76263 1.45662,-0.86939c0.6584,-0.60502 0.74738,-1.44136 0.74738,-1.92182c0,-0.74738 -0.26692,-1.99299 -1.43882,-2.74037c-0.9787,-0.60502 -2.42006,-0.60502 -3.16744,-0.60502l-4.80454,0l-0.00254,12.84516l0,0l0,0.00001zm2.63106,-10.8725l1.86589,0c0.90753,0 2.265,0 2.265,1.60152c0,1.65489 -1.42865,1.65489 -2.20908,1.65489l-1.92182,0l0,-3.25641l0,0l0.00001,0zm0,5.2494l1.58372,0c1.31934,0 2.97424,0 2.97424,1.83538c0,1.72608 -1.42865,1.72608 -2.69207,1.72608l-1.86589,0l0,-3.56146l0,0zm10.76828,5.6231l8.80578,0l0,-2.13281l-6.05017,0l0,-3.47249l5.4782,0l0,-2.09722l-5.4782,0l0,-3.06322l5.85442,0l0,-2.09722l-8.61005,0l0,12.86295l0,0l0.00001,0zm12.04695,0l2.809,0l0,-5.19603l2.42261,0c0.46266,0 1.13631,0 1.38798,0.72958c0.17541,0.49825 0.56943,3.75466 0.69145,4.46645l3.04034,0c-0.14236,-0.21354 -0.24912,-0.3559 -0.39148,-0.92532c-0.08643,-0.3559 -0.1932,-0.9787 -0.38894,-2.49125c-0.23387,-1.67269 -0.37368,-2.77596 -2.31076,-2.9539c0.62281,-0.17795 2.68444,-0.74483 2.68444,-3.14964c0,-0.83634 -0.32031,-1.77946 -1.11597,-2.47345c-1.03209,-0.88973 -2.47599,-0.88973 -3.89702,-0.87194l-4.92656,0l-0.00508,12.8655l0,0l0,0.00001zm2.72003,-10.83691l1.85064,0c0.87448,0 1.39052,0 1.81759,0.30251c0.24912,0.16015 0.67873,0.56943 0.67873,1.44136c0,0.90753 -0.51858,1.35494 -0.71178,1.49475c-0.44487,0.3559 -1.08547,0.3559 -1.40577,0.3559l-2.22432,0l-0.00508,-3.59451l0,0l0,-0.00001zm22.05005,1.92182c-0.02034,-0.69399 -0.07372,-1.70828 -0.92787,-2.68698c-1.00921,-1.15665 -2.72003,-1.61931 -4.37493,-1.61931c-3.89702,0 -6.74161,2.43532 -6.74161,6.99328c0,1.34985 0.26692,3.39877 1.70574,4.80454c1.01429,0.9965 2.52683,1.70574 5.46294,1.70574c2.58276,0 3.89702,-0.44487 4.69777,-0.71178l0,-6.42131l-5.24432,0l0,2.13281l2.48871,0l0,2.70732c-0.30251,0.08897 -0.76517,0.24912 -2.09976,0.24912c-1.53287,0 -2.38447,-0.39148 -3.02508,-1.1058c-0.94311,-1.01429 -1.06768,-2.58022 -1.06768,-3.45215c0,-1.9752 0.62281,-4.89606 3.75721,-4.89606c0.60756,0 1.61931,0.14236 2.1506,0.99904c0.32285,0.49825 0.34573,0.96091 0.36097,1.29901l2.86239,0l0,0.00254l-0.00508,0l0,0.00001zm3.61485,8.9151l2.75562,0l0,-12.89854l-2.75562,0l0,12.89854l0,0zm5.92306,-4.11055c0.02034,1.24562 0.05339,4.41052 4.97994,4.41052c3.55892,0 5.48074,-1.86589 5.48074,-4.17919c0,-2.50903 -2.18365,-3.11405 -4.40797,-3.64789c-1.85318,-0.46266 -2.79629,-0.67619 -2.79629,-1.86843c0,-1.04988 0.8338,-1.74896 2.11501,-1.74896c1.90657,0 2.05147,1.51508 2.08196,1.95995l2.65139,0c0,-0.42707 0,-1.4617 -0.72704,-2.38702c-0.96599,-1.21004 -2.54971,-1.50999 -3.88177,-1.50999c-3.57417,0 -5.08417,1.86589 -5.08417,3.98599c0,2.22432 1.6676,3.13185 4.73082,3.89702c1.63965,0.39148 2.43786,0.58722 2.43786,1.72608c0,1.08547 -0.94311,1.79725 -2.43786,1.79725c-2.37176,0 -2.33618,-1.83284 -2.33618,-2.43786l-2.80646,0l0,0.00254zm23.94898,-4.55542c0,-2.56242 -1.9752,-4.26816 -4.78674,-4.26816c-3.61485,0 -5.88747,2.70224 -5.88747,6.77975c0,3.18524 1.43882,6.45944 5.87222,6.45944c1.17699,0 2.61327,-0.26692 3.75466,-1.43882c1.03209,-1.06768 1.11089,-2.25991 1.15665,-3.02508l-2.90052,0c-0.05339,1.70828 -1.15665,2.43786 -2.3133,2.43786c-2.68952,0 -2.68952,-3.64789 -2.68952,-4.41306c0,-2.65139 0.85414,-4.78674 2.90306,-4.78674c1.86335,0 2.03113,1.81505 2.08196,2.25991l2.809,0l0,-0.00508l0,-0.00001zm3.20049,8.66597l2.75562,0l0,-5.64088l4.8986,0l0,5.64088l2.76071,0l0,-12.86295l-2.79883,0l0,5.14264l-4.86047,0l0,-5.14264l-2.75562,0l0,12.86295l0,0l-0.00001,0zm14.40091,0l8.80324,0l0,-2.13281l-6.04762,0l0,-3.47249l5.48074,0l0,-2.09722l-5.48074,0l0,-3.06322l5.85696,0l0,-2.09722l-8.61259,0l0,12.86295l0,0l0.00001,0z"/>
		<path d="m57.44946,12.81043l0,0l-0.01271,-0.23387c0,-1.50999 1.22782,-2.73529 2.748,-2.73529c1.51762,0 2.748,1.22274 2.748,2.73529l-0.01017,0.23387l-5.47311,0l0,0z"/>
		<path d="m60.39829,23.80495l0,-2.94882l-2.69207,0l-9.74382,0l0.00508,0c0.17541,1.65744 1.56847,2.94882 3.26404,2.94882l9.16676,0l0,0z"/>
		<path d="m51.10442,12.81551l-2.96915,-2.95644l3.7877,0l0,0c1.71591,0 3.12676,1.29392 3.30471,2.9539l-4.12326,0.00254l0,0z"/>
		<path d="m45.71266,23.82274l-3.52078,0l-0.00508,0.01271c0.27709,-1.68286 1.74896,-2.96661 3.51824,-2.96661l0.00763,2.9539l0,0z"/>
		<path d="m59.51618,27.49351l-6.99836,0l-6.80516,0l-0.01271,0c-1.75658,0 -3.21828,-1.26341 -3.51062,-2.92848l7.02633,0.01271l6.80262,0l0.01271,0c1.75658,0 3.21828,1.26341 3.51316,2.92848l-0.02796,-0.01271l0,0z"/>
		<path d="m49.4114,31.85319l-2.95644,2.96915l6.27895,0l9.40826,0l8.29483,0c1.72608,0 3.13948,-1.30663 3.3098,-2.97424l0.00254,0.00508l-6.22811,0l-9.68534,0l-8.42447,0l0,0l-0.00001,0z"/>
		<path d="m69.43285,12.81297l2.96915,-2.9539l-3.7877,0l0.00254,0.00254c-1.71591,0 -3.12676,1.29392 -3.30471,2.9539l4.12072,-0.00254l0,0z"/>
		<polygon points="65.60702365993075,16.47613946623227 68.576180291524,13.51963275007239 68.576180291524,13.50698559622731 51.72471447141356,13.532358148919059 54.6811383399247,16.488782017430196 65.59431298955496,16.488782017430196 "/>
		<path d="m60.39829,27.49606l0,-2.9539l13.90521,0.00254l0.00763,0c-0.17541,1.65998 -1.5888,2.9539 -3.30471,2.9539l-10.60813,-0.00254l0,0z"/>
		<path d="m61.13295,23.82528l2.98441,-2.9539l8.59479,0l0.00763,-0.00254c-0.17541,1.65998 -1.5888,2.9539 -3.30471,2.9539l-8.28211,0.00254l0,0z"/>
		<path d="m50.34434,28.21038l9.19727,0l6.64501,0l8.91001,0l0.00763,0c-0.18049,1.65489 -1.57864,2.95644 -3.292,2.95644l-8.08637,0l-4.46136,0l-5.63835,0c-1.70828,0 -3.0988,-1.30155 -3.28183,-2.95644l0,0z"/>
		<path d="m46.84389,38.46769l0,0l-3.86651,3.83601l-2.09213,-2.09976l-0.00763,0.01017l0.00508,0l4.72574,-4.68506l10.06158,0l4.77404,0l5.78324,0l3.25641,0l2.84459,-0.00254c-0.18049,1.65489 -1.59135,2.94119 -3.30217,2.94119l-22.18224,0l0,0z"/>
		<path d="m48.33355,42.14355l18.8877,0.00763c1.71591,0 3.12931,-1.29392 3.30471,-2.95644l-23.45582,0.00254l-12.59858,12.53502c1.30663,1.05243 3.23353,0.98887 4.44865,-0.21861l9.41334,-9.37012l0,0l0,-0.00001z"/>
		<path d="m49.79779,45.80669l15.17625,0.01017c1.71591,0 3.12676,-1.29392 3.30471,-2.95644l-19.73167,0.00254l-8.93034,8.86679c1.30918,1.05497 3.23607,0.98887 4.44865,-0.22116l5.7324,-5.7019l0,0l-0.00001,-0.00001z"/>
		<path d="m50.00878,46.55915l16.32782,0l2.09722,2.95644l-8.65071,0l-8.52615,0l-2.04892,2.0413c-1.21511,1.2075 -3.14456,1.27104 -4.44865,0.22116l5.24432,-5.20874l0.00508,-0.01017l0,0l0,0.00001z"/>
		<path d="m71.53771,53.8651l-16.52101,0.01017c0.17541,1.65744 1.58626,2.97424 3.30217,2.97424l15.32878,0.00508l-2.10993,-2.98949l0,0l-0.00001,0z"/>
		<path d="m68.97783,50.23246l-17.34973,-0.01017c0.17541,1.65998 1.58626,2.9717 3.30217,2.9717l16.14224,0.00508l-2.09468,-2.96661l0,0l-0.00001,0z"/>
		<path d="m60.10849,90.56265l-5.21127,0l0.00508,0c0.16524,1.65235 1.49729,2.94373 3.11659,2.94373l2.09213,0l0.28726,0l0,-2.94373l-0.27454,0l-0.01525,0l0,0z"/>
		<path d="m62.52601,86.17247l-2.20908,0l-7.79911,0l0.00508,-0.01525c0.18049,-1.65744 1.59389,-2.9539 3.31234,-2.9539l3.73687,0l2.95644,0l2.96661,0l0,0l0,0l3.73687,0c1.71845,0 3.12931,1.29646 3.3098,2.9539l0.00508,0.01525l-7.79657,0l-2.20908,0l-0.01525,0l0,0z"/>
		<path d="m57.36558,75.88465c1.56338,0.15761 2.80646,1.39052 2.97424,2.93865l0.00254,0.01525l-2.97678,0l0,-2.9539l0,0z"/>
		<path d="m62.25909,79.54016l1.95232,0l8.33296,0l-0.00508,0.01017c-0.17795,1.66252 -1.59135,2.9539 -3.3098,2.9539l0.00508,0l-6.97294,0l-2.70478,0l-7.05175,0l0.00508,-0.01017c0.17795,-1.66252 1.59389,-2.9539 3.3098,-2.9539l3.73941,0l2.69969,0l0,0z"/>
		<path d="m60.58131,86.85883l7.21952,0l-0.00763,0.01017c-0.17541,1.66252 -1.59135,2.95898 -3.3098,2.95898l0.00508,0l-3.90465,0l-5.96119,0l-7.79403,0l0.00508,-0.01525c0.17795,-1.66252 1.59389,-2.9539 3.3098,-2.9539l3.73687,0l3.20557,0l3.49537,0l0,0l0,0l-0.00001,0z"/>
		<path d="m63.43607,20.12909l-13.08157,-0.00763l-0.00763,0.01271c0.16778,-1.6676 1.58626,-2.96661 3.30471,-2.96661l9.78702,0.00763l8.31516,0.00508l0.00763,-0.01271c-0.17032,1.6676 -1.58626,2.96661 -3.30471,2.96661l-0.0178,0l-5.05113,-0.00254l0.0483,-0.00254l0,0z"/>
		<path d="m63.70553,68.54819l-4.84776,0.00508c0.17541,1.65744 1.58626,2.97424 3.30217,2.97424l1.44136,0l0.0788,0.02542l2.16077,0l0.03305,0.00508l6.67043,0l-0.00508,-0.02034c-0.16524,-1.59897 -1.4795,-2.87002 -3.10643,-2.96915l-3.564,0.01017l-2.265,-0.03051l0.10168,0l0,0z"/>
		<path d="m72.54183,64.89267l-14.55598,0c0.17541,1.66252 1.5888,2.97424 3.30217,2.97424l8.24398,-0.01017l3.00983,-2.96407l0,0z"/>
		<polygon points="64.57493342673524,64.1732844551841 73.14431127229591,64.16816631155075 76.15409639083191,61.204135187826296 61.60065496939092,61.204135187826296 58.6162948737242,64.1732844551841 "/>
		<path d="m62.45991,57.51045l-3.83855,0c0.17541,1.66252 1.58626,2.97424 3.30217,2.97424l0.53638,0l13.65862,0.00508l-0.00508,-0.02034c-0.16778,-1.59389 -1.48204,-2.8751 -3.10643,-2.96915l-10.53694,0.01017l-0.01017,0l0,0z"/>
		<path d="m65.55618,72.2215l8.22364,0c1.68286,0.04068 3.06322,1.3168 3.23861,2.94882l-11.49023,-0.00508l-2.33618,0l-0.0178,0.00508c-1.68286,-0.04068 -3.05051,-1.31172 -3.22844,-2.94882l5.57988,0l0.03051,0l0,0l0.00001,0z"/>
		<path d="m71.35213,75.88465l-6.67297,0c-1.71845,0 -3.12931,1.29646 -3.3098,2.95898l9.98531,-0.00508l2.35398,0c1.71845,0 3.13185,-1.29646 3.31234,-2.95898l-5.62818,0.00508l-0.04068,0l0,0z"/>
		<path d="m77.40991,50.86544l2.11247,-2.09976l2.12264,-2.11247l0,0c1.04734,1.29901 0.96345,3.20049 -0.24658,4.40289l-1.89894,1.89131l-1.29901,1.29138l0.00254,0c-1.21511,1.20241 -3.12676,1.28121 -4.4334,0.23895l3.64026,-3.61231l0,0l0.00001,0z"/>
		<path d="m88.76796,17.8285l0,-4.4334l0,0.00508c1.2075,0 2.26245,0.64061 2.84205,1.59643l-2.84205,2.83188l0,0z"/>
		<path d="m88.94591,39.3498l7.34917,-7.3085l-0.00254,0.00254c1.05497,1.29901 0.97616,3.20812 -0.23895,4.4156l-7.34663,7.3085l0.00254,-0.00508c-1.05497,-1.29646 -0.97616,-3.20557 0.23641,-4.41306l0,0z"/>
		<path d="m95.24011,32.13281l-6.50773,6.47469l0,0c-1.05751,-1.29901 -0.97616,-3.20812 0.23641,-4.41306l6.51028,-6.47469l-0.00254,0c1.05751,1.29646 0.9787,3.20557 -0.23641,4.41306l0,0z"/>
		<path d="m85.10227,32.81663l0.02288,-0.02288l8.13722,-8.09654l3.16998,-3.15219l0.01271,0.00508c1.04734,1.29646 0.96599,3.19795 -0.24404,4.40289l-6.66789,6.63231l0.00254,-0.00508c-1.21004,1.2075 -3.12676,1.2863 -4.4334,0.23641l0,0l-0.00001,0z"/>
		<path d="m93.15305,18.61909l-4.70794,4.67998l0.00508,-0.00254c-1.05497,-1.29901 -0.9787,-3.20812 0.23641,-4.4156l2.36668,-2.35398l4.75116,-4.72828l0.00254,-0.00254c1.05751,1.29901 0.97616,3.20812 -0.23641,4.4156l-2.41752,2.40735l0,0l0,0.00001z"/>
		<path d="m74.77378,21.33912l0,-4.17919l0.00763,-0.00763l6.72127,-6.68314l-0.00254,0.00508c1.05497,1.29901 0.97616,3.20557 -0.23641,4.41306l-6.48995,6.45181l0,0z"/>
		<path d="m76.6473,29.87036c-1.0448,-1.29646 -0.96345,-3.20049 0.24658,-4.40289l4.71048,-4.68506l2.08959,2.07942l-7.04666,7.00853l0,0l0.00001,0z"/>
		<path d="m75.07374,36.57892c-1.04734,-1.29646 -0.96345,-3.20049 0.24912,-4.40289l8.87188,-8.82612l2.08959,2.07942l-11.21059,11.14959l0,0z"/>
		<path d="m96.36625,16.42273c1.05497,1.29901 0.97616,3.20812 -0.23895,4.4156l-24.34555,24.22861c-1.05497,-1.29901 -0.97616,-3.20812 0.23641,-4.4156l24.34809,-24.22861l0,0z"/>
		<path d="m77.29807,13.67728l-2.49379,2.48616l0,-3.51316l0.36351,-0.02288c0.86685,0 1.62185,0.42961 2.13027,1.04988l0,0l0.00001,-0.00001z"/>
		<path d="m81.56877,36.33743l0,0c1.02955,1.27613 0.96599,3.13693 -0.18812,4.34443l-0.25675,0.25675l-2.27771,2.27008l-3.12676,3.11151l-1.36001,1.35239l0.00254,-0.00254c-1.21258,1.2075 -3.12422,1.2863 -4.43086,0.23895l3.75975,-3.73432l2.93865,-2.9234l2.61835,-2.60564l2.32093,-2.30822l0,0l0,0l-0.00001,0.00001z"/>
		<path d="m74.63651,48.42758l2.25483,-2.24212l2.61835,-2.60564l2.12264,-2.11247l0,0c1.04734,1.29901 0.96345,3.20049 -0.24658,4.40289l-2.28025,2.27008l-2.38193,2.36922l-0.32031,0.32031l0.00254,-0.00254c-1.21511,1.2075 -3.12676,1.2863 -4.4334,0.23895l2.6641,-2.63869l0,0l0,0l0,0.00001z"/>
		<path d="m93.24457,49.6732l-7.86267,7.82199l-1.43119,1.42865l-1.36001,1.34985l0.00254,0c-1.21258,1.2075 -3.12422,1.2863 -4.43086,0.23895l3.76229,-3.73432l1.36764,-1.36001l7.86267,-7.82962l1.57355,-1.56592l2.61835,-2.6031l2.12264,-2.11501l0,0c1.04734,1.29901 0.96345,3.20049 -0.24912,4.40289l-2.27771,2.27262l-1.69811,1.69303l0,0l-0.00001,0z"/>
		<path d="m83.6482,54.08372l4.37747,-4.35459l-0.01271,-0.00508c-1.30918,-1.04988 -3.22844,-0.96853 -4.44102,0.23895l0.00254,-0.00254l-2.0413,2.02859l-2.64885,2.63615l-0.00763,0.01017l-2.55988,2.54717l0.01271,0c1.30663,1.05243 3.23099,0.9787 4.44102,-0.23895l0.21354,-0.21354l2.19637,-2.17857l0.46266,-0.46266l0.00508,-0.00508l0,0l-0.00001,0z"/>
		<path d="m78.33778,18.83771l1.68286,-1.67269l-0.01017,0.00763l1.91165,-1.90148c1.05751,1.29901 0.97616,3.20812 -0.23641,4.4156l0,0l-1.24816,1.24053l-1.34985,1.34223l-0.40165,0.39911l-3.0683,3.05305c-1.05751,-1.29901 -0.97616,-3.20812 0.23895,-4.41306l1.12868,-1.12614l0.01017,-0.01017l1.34223,-1.3346l0,0z"/>
		<polygon points="72.9205710710462,65.69848757580576 76.80746608786558,61.82949501534995 78.9148157024274,63.92923369258074 75.03053498919053,67.79317070540446 "/>
		<path d="m83.54651,64.51135l-2.21162,2.18874l-1.35747,1.35494l0.00254,-0.00508c-1.21511,1.2075 -3.12676,1.2863 -4.4334,0.23895l3.78516,-3.77754l4.21477,0l0,0l0.00001,0z"/>
		<path d="m93.10476,50.8146l3.82329,-3.80296l0,0c1.05243,1.29901 0.97616,3.20812 -0.23895,4.4156l-1.48204,1.47696l-6.51282,6.47978l-5.0257,5.00028l0,0c-1.05751,-1.29646 -0.97616,-3.20812 0.23895,-4.41306l2.68952,-2.67173l6.49503,-6.46198l0.01271,-0.02288l0,0l0,-0.00001z"/>
		<path d="m79.45121,69.59553l0,0l5.21381,-5.18332l3.16744,-3.15219l0.01271,0.00508c1.04734,1.29646 0.96345,3.19795 -0.24912,4.40289l-3.95548,3.93769l-4.18936,-0.01017l0,0l0,0.00001z"/>
		<polygon points="83.89982868743027,70.33021609386924 86.73933795403764,67.50085474370326 86.74190070797204,71.66985152766347 83.90495419529907,74.48142824923298 "/>
		<path d="m88.58747,49.08599l0.00508,-0.00254c-1.05497,-1.29901 -0.97616,-3.20812 0.23641,-4.4156l8.62022,-8.56937l0.01017,-0.00508c1.05751,1.29646 0.9787,3.20557 -0.23895,4.41306l-8.61513,8.57191l-0.0178,0.00763l0,0z"/>
		<path d="m90.30592,60.4847l-1.69811,0l2.8929,-2.8751l0.01271,0.01017c0.66348,0.65585 0.66348,1.71845 0,2.37939c-0.34064,0.3381 -0.79058,0.49571 -1.23545,0.48554l0.02796,0l0,0l-0.00001,0z"/>
		<path d="m28.64001,15.14406l0,0c-1.30663,-1.05497 -3.23099,-0.9787 -4.44102,0.23133l2.09976,2.08959l2.34126,-2.32093l0,0l0,0.00001z"/>
		<path d="m36.03748,13.00108l-3.07083,3.05559l-3.02508,3.01237l-3.25641,3.23861l-3.97074,3.94786l0,0c-1.04734,-1.29646 -0.96345,-3.19795 0.24658,-4.40289l3.02508,-3.00983l2.92848,-2.91832l2.66664,-2.65139l0.02542,-0.03305c1.21258,-1.2075 3.12676,-1.2863 4.43086,-0.23895l0,0l0,0z"/>
		<path d="m36.3527,17.90477l-2.28025,2.27262l-3.12422,3.11151l-1.36001,1.35494l0.00254,-0.00254c-1.21511,1.20495 -3.12676,1.2863 -4.43086,0.23895l3.76229,-3.73432l2.93356,-2.9234l2.61835,-2.60564l2.12264,-2.11247l0,0c1.04734,1.29646 0.96599,3.19795 -0.24404,4.40035l0,0l-0.00001,0.00001z"/>
		<path d="m41.65295,17.77258l-5.43244,5.40447l-7.14326,7.10513l-0.00254,0.00508c-1.04734,-1.29901 -0.96599,-3.20049 0.24404,-4.40543l5.63327,-5.60784l6.93989,-6.90431l0.00254,-0.00508c1.04988,1.30409 0.96853,3.20303 -0.2415,4.40797l0,0l0,0.00001z"/>
		<path d="m28.2587,32.17095l2.38447,-2.37176l3.38097,-3.36572l2.60564,-2.59547l2.96915,-2.95644l0.01017,0.01017c1.04734,1.29901 0.96599,3.20049 -0.24658,4.40289l-1.65998,1.65235l-2.97424,2.96153l-2.03621,2.0235c-1.21004,1.21004 -3.12931,1.28884 -4.4334,0.23895l0,0z"/>
		<path d="m39.56336,26.06486l2.09976,2.08959l-3.97074,3.94786l0.01017,-0.00763c-1.21258,1.20495 -3.12422,1.2863 -4.43086,0.23895l6.29166,-6.26878l0,0l0,0.00001z"/>
		<path d="m46.87184,33.33522l-2.09468,-2.08196l-1.81505,1.80488l-6.57638,6.54333l0.00508,-0.00254c1.29392,1.05243 3.15219,1.027 4.29613,-0.10931l6.1849,-6.15439l0,0l-0.00001,0z"/>
		<path d="m44.29163,30.74484l-2.09468,-2.08196l-1.8125,1.80488l-6.57638,6.54333l0.00508,-0.00254c1.29392,1.05497 3.14964,1.02955 4.29104,-0.10931l6.18744,-6.15439l0,0l-0.00001,0z"/>
		<path d="m23.84564,40.72761l-2.09976,-2.08959l0,-0.00508c1.21511,-1.21004 3.13185,-1.28884 4.44102,-0.23895l-2.34126,2.33364l0,0l0,-0.00001z"/>
		<path d="m25.15228,44.60429l-2.8573,2.84459l-2.56242,2.54971l0.00254,0c-1.05497,-1.30155 -0.97362,-3.21066 0.23895,-4.41814l-0.03305,0.03305l3.11151,-3.09626l0.40419,-0.40165l4.92656,-4.90623l2.56496,-2.54971l0,0c1.05497,1.30155 0.97362,3.21066 -0.24404,4.41814l-4.02667,4.00633l-1.52525,1.52016l0,0l0.00001,0z"/>
		<path d="m32.72006,42.29099l-6.69839,6.66534l-5.89001,5.86205l-0.00763,-0.01525c-1.05243,-1.30155 -0.97362,-3.20557 0.2415,-4.4156l6.69331,-6.66026l5.89256,-5.86459l0.00508,0.01271c1.05497,1.30155 0.97362,3.21066 -0.2415,4.41814l0.00508,-0.00254l0,0z"/>
		<path d="m27.7935,48.07424c-1.21765,1.2075 -1.29392,3.11914 -0.2415,4.4156l0.00763,0.01271l9.44639,-9.40063l-4.22748,0.01017l-4.98503,4.96215l0,0l-0.00001,0z"/>
		<path d="m30.33812,54.8794c-1.21765,1.21258 -3.13439,1.29138 -4.44357,0.24404l0.00254,-0.00508l4.1258,-4.10292l4.63677,-4.61389l3.30217,-3.28437l4.22748,-0.01017l-6.37555,6.34251l-5.44261,5.40956l-0.03305,0.02034l0,0z"/>
		<path d="m51.94331,53.81172l-5.76291,5.73495l-0.00254,0c-1.05497,-1.29646 -0.97616,-3.20812 0.23895,-4.41306l1.32443,-1.32189l4.20207,0l0,0z"/>
		<path d="m41.55127,65.13671l-11.43939,11.37074c1.30409,1.05243 3.23353,0.98887 4.44865,-0.21861l11.21059,-11.15213l-4.21986,0l0,0z"/>
		<path d="m32.76073,62.50565l-2.09976,-2.08451l0,-0.01017c1.21511,-1.2075 3.12931,-1.2863 4.44102,-0.23895l-2.34126,2.33364l0,0l0,-0.00001z"/>
		<path d="m40.96659,59.53649l-6.69839,6.6628l-5.89256,5.86459l-0.00508,-0.01017c-1.05497,-1.30155 -0.97362,-3.21319 0.2415,-4.41814l6.69585,-6.6628l5.89001,-5.86459l0.00508,0.01525c1.05497,1.30155 0.97616,3.20812 -0.2415,4.41814l0.00508,-0.00508l0,0z"/>
		<path d="m40.9132,64.7732c1.16173,-1.2075 1.2202,-3.07338 0.18303,-4.35459l-2.04638,2.03621l-5.87985,5.85442c-1.21765,1.21258 -1.29646,3.11914 -0.2415,4.41814l0.00508,0.01017l6.41114,-6.37555l1.5405,-1.53542l0.02796,-0.05339l0,0l0,-0.00001z"/>
		<path d="m58.59849,67.94063l-2.08959,-2.07942l-3.40131,3.38097l-6.57638,6.54333l0.00254,-0.00508c1.29392,1.05243 3.15219,1.027 4.29358,-0.10931l7.77116,-7.73048l0,0l-0.00001,0z"/>
		<path d="m55.58611,71.94441l-3.68348,3.66314l0.00508,0c1.29392,1.05243 3.14964,1.027 4.29358,-0.11439l1.4795,-1.46933l1.8964,-1.88623l-2.08959,-2.07942l-1.88877,1.87606l-0.01271,0.01017l0,0l-0.00001,0z"/>
		<path d="m52.82796,54.01509l2.09976,2.08959l-7.86267,7.82454l0,0c-1.05751,-1.29646 -0.97616,-3.20812 0.23641,-4.41306l5.52649,-5.50107l0,0l0.00001,0z"/>
		<path d="m43.07906,73.07564c-1.21511,1.2075 -3.12931,1.2863 -4.43848,0.23387l0.03051,-0.01017l16.76506,-16.68116l2.09213,2.08451l-14.44922,14.37295l0,0l0,0.00001z"/>
		<path d="m43.60527,77.75308c-1.21258,1.21258 -3.12931,1.2863 -4.43848,0.23895l0.03305,-0.01525l18.84448,-18.75297l2.08959,2.07942l-16.52864,16.44984l0,0l0,0.00001z"/>
	</g>
</svg>
